<?xml version="1.0" encoding="iso-8859-1"?>
<!-- Generator: Adobe Illustrator 19.0.0, SVG Export Plug-In . SVG Version: 6.00 Build 0)  -->
<svg version="1.1" id="Capa_1" xmlns="http://www.w3.org/2000/svg" xmlns:xlink="http://www.w3.org/1999/xlink" x="0px" y="0px"
	 viewBox="0 0 512.001 512.001" style="enable-background:new 0 0 512.001 512.001;" xml:space="preserve">
<path style="fill:#87DCFA;" d="M506.758,261.13c0,137.671-111.399,250.87-250.87,250.87C116.78,512,5.019,399.143,5.019,261.13
	c0-138.552,112.318-250.87,250.87-250.87C394.698,10.26,506.758,122.816,506.758,261.13z"/>
<path style="fill:#82CD64;" d="M121.534,262.177l-54.387,15.171c-4.299,1.2-8.704-1.534-9.539-5.919L41.181,219.91
	c-1.834-5.752-0.62-12.041,3.221-16.698l11.707-14.191c2.679-3.248,4.145-7.327,4.145-11.538v-42.951c0-3.228,2.111-6.078,5.2-7.017
	l48.132-14.639L121.534,262.177z"/>
<path style="fill:#46A5CD;" d="M506.758,261.131c0,137.674-111.399,250.87-250.87,250.87c-47.006,0-90.895-12.885-128.403-35.288
	c-18.873-11.264-36.135-24.943-51.353-40.595l110.129-39.333c14.372-5.133,30.018-5.49,44.609-1.019l44.541,13.649
	c16.867,5.168,35.177-0.533,46.129-14.362c44.466-56.15,45.09-58.686,56.736-66.185l67.674-43.572
	c13.102-8.435,22.082-21.963,24.769-37.311c3.315-18.931,2.247-37.133,9.998-59.12l7.735-21.943
	c2.096,5.141,4.016,10.376,5.761,15.683C502.36,207.321,506.758,233.72,506.758,261.131z"/>
<path style="fill:#FFAF82;" d="M329.995,380.627l-18.517,16.374c-1.246,1.103-3.167,0.931-4.269-0.381l-71.996-73.32
	c-1.293-1.515-1.152-3.795,0.313-5.069l21.763-18.923c1.465-1.274,3.721-1.077,5.014,0.437l67.957,76.494
	C331.36,377.55,331.241,379.525,329.995,380.627z"/>
<path style="fill:#FA875A;" d="M314.85,388.52l-69.136-72.801c-1.711-2.004-2.205-4.43-1.099-5.393l-9.742,8.471
	c-1.107,0.962-0.613,3.389,1.099,5.393l70.588,71.66c1.458,1.736,3.421,2.474,4.363,1.641l8.289-7.33
	C318.272,390.993,316.308,390.255,314.85,388.52z"/>
<path style="fill:#AA6100;" d="M388.29,378.058l1.37,1.59c1.09,1.266,0.949,3.176-0.317,4.267l-53.385,45.998
	c-1.266,1.09-3.176,0.949-4.267-0.317l-22.513-26.128c-1.046-1.214-0.909-3.062,0.306-4.108l26.046-22.442
	c1.21-1.043,3.056-0.905,4.103,0.31l7.492,8.695c1.464,1.699,4.03,1.89,5.729,0.425l11.166-9.62
	c7.157-6.167,17.878-5.527,24.255,1.343L388.29,378.058z"/>
<path style="fill:#884D00;" d="M338.578,419.159l-20.287-23.546c-1.045-1.212-0.908-3.059,0.306-4.104l-9.11,7.85
	c-1.212,1.045-1.349,2.892-0.305,4.104l21.541,24.999l0,0l10.565-9.103C340.482,420.052,339.27,419.962,338.578,419.159z"/>
<path style="fill:#CC7400;" d="M342.657,380.657l-31.938,27.519c-0.841,0.725-2.111,0.631-2.836-0.211l-7.744-8.988
	c-0.725-0.841-0.631-2.111,0.211-2.836l31.938-27.519c0.841-0.725,2.111-0.631,2.836,0.211l7.744,8.988
	C343.593,378.662,343.498,379.932,342.657,380.657z"/>
<path style="fill:#AA6100;" d="M316.673,399.743l-7.103-8.244c-0.902-1.047-1.085-2.367-0.409-2.951l-9.11,7.85
	c-0.676,0.582-0.493,1.904,0.409,2.951l7.103,8.244c0.902,1.047,2.182,1.423,2.858,0.84l9.11-7.85
	C318.853,401.166,317.574,400.79,316.673,399.743z"/>
<path style="fill:#FFB655;" d="M388.687,378.518l1.813,2.104c2.032,2.358,2.652,5.154,1.387,6.244l-53.385,45.998
	c-1.266,1.09-3.939,0.063-5.971-2.295l-1.813-2.104L388.687,378.518z"/>
<path style="fill:#FF9811;" d="M347.615,425.014l-9.11,7.85c-1.266,1.09-3.942,0.062-5.974-2.296l-1.812-2.103l9.11-7.85
	l1.812,2.103C343.672,425.076,346.349,426.104,347.615,425.014z"/>
<path style="fill:#FFAF82;" d="M132.325,411.057l-19.916-14.641c-1.34-0.986-1.579-2.9-0.53-4.254l49.996-70.175
	c1.207-1.584,3.466-1.928,5.021-0.765l23.093,17.274c1.555,1.163,1.839,3.41,0.632,4.994l-53.952,66.897
	C135.621,411.741,133.665,412.043,132.325,411.057z"/>
<path style="fill:#FA875A;" d="M121.411,397.921l50.093-67.27c1.597-2.096,3.864-3.091,5.039-2.213l-10.338-7.733
	c-1.175-0.879-3.442,0.117-5.039,2.212l-48.671,68.449c-1.389,1.791-1.695,3.866-0.682,4.612l8.915,6.554
	C119.716,401.787,120.023,399.712,121.411,397.921z"/>
<path style="fill:#AA6100;" d="M147.15,467.494l-1.265,1.675c-1.007,1.334-2.904,1.598-4.237,0.592l-56.236-42.464
	c-1.334-1.007-1.598-2.904-0.592-4.237l20.783-27.524c0.965-1.278,2.801-1.535,4.08-0.569l27.438,20.718
	c1.274,0.962,1.53,2.796,0.564,4.076l-6.916,9.16c-1.351,1.79-0.996,4.337,0.794,5.69l11.762,8.881
	c7.539,5.693,9.177,16.306,3.811,23.991L147.15,467.494z"/>
<path style="fill:#884D00;" d="M96.475,427.586l18.728-24.803c0.964-1.277,2.799-1.533,4.076-0.569l-9.597-7.247
	c-1.277-0.964-3.112-0.708-4.076,0.569L85.72,421.87l0,0l11.129,8.403C96.004,429.635,95.836,428.431,96.475,427.586z"/>
<path style="fill:#CC7400;" d="M134.97,423.439l-33.645-25.405c-0.887-0.669-1.062-1.931-0.393-2.816l7.15-9.468
	c0.669-0.887,1.931-1.062,2.816-0.393l33.645,25.405c0.887,0.669,1.062,1.931,0.393,2.816l-7.15,9.468
	C137.118,423.933,135.857,424.109,134.97,423.439z"/>
<path style="fill:#AA6100;" d="M110.826,402.072l6.558-8.685c0.833-1.103,2.086-1.561,2.798-1.023l-9.597-7.247
	c-0.712-0.538-1.965-0.081-2.798,1.023l-6.558,8.685c-0.833,1.103-0.93,2.432-0.218,2.97l9.597,7.247
	C109.896,404.505,109.993,403.175,110.826,402.072z"/>
<path style="fill:#FFB655;" d="M146.783,467.979l-1.674,2.217c-1.876,2.484-4.478,3.682-5.811,2.675l-56.236-42.464
	c-1.334-1.007-0.894-3.837,0.982-6.321l1.674-2.217L146.783,467.979z"/>
<path style="fill:#FF9811;" d="M92.661,437.654l-9.597-7.247c-1.333-1.007-0.893-3.841,0.982-6.324l1.673-2.215l9.597,7.247
	l-1.673,2.215C91.768,433.814,91.329,436.647,92.661,437.654z"/>
<path style="fill:#965028;" d="M135.668,254.576l4.264,89.457c0.088,1.843,1.536,3.332,3.377,3.47l46.404,3.475
	c2.15,0.161,3.971-1.565,3.925-3.72l-2.126-101.311L135.668,254.576z"/>
<path style="fill:#69280F;" d="M158.179,348.619l-14.867-1.115c-1.848-0.145-3.293-1.631-3.376-3.469l-4.264-89.46l13.752-2.127
	L158.179,348.619z"/>
<path style="fill:#4BB9E1;" d="M248.53,100.148c-4.379-3.436-10.665-2.917-14.42,1.191l-42.487,46.482
	c-0.361,0.395-0.98,0.411-1.36,0.033l-19.711-19.565l3.573-3.685c1.023-1.055,0.997-2.741-0.058-3.764l-25.54-24.766
	c-7.329-7.107-19.033-6.927-26.139,0.403l-1.312,1.354c-7.107,7.329-6.927,19.033,0.403,26.139l25.54,24.766
	c1.055,1.023,2.741,0.997,3.764-0.058l1.937-1.998c23.951,26.118,22.465,24.082,31.718,31.7l0,0
	c6.216,5.117,15.404,4.226,20.521-1.989l45.555-61.543C253.939,110.218,253.061,103.704,248.53,100.148z"/>
<path style="fill:#965028;" d="M265.82,298.247c0,0-4.026,6.979-13.752,23.87l-9.044,15.714c-0.723,1.456-2.498,2.055-3.954,1.311
	l-49.226-21.126c-1.997-0.857-4.19-1.142-6.342-0.842c-1.032,0.144-2.065,0.263-3.094,0.36c-31.262,2.953-33.688-2.777-48.338-22.61
	c-0.248-0.351-0.485-0.712-0.723-1.094c-0.124-0.196-0.248-0.403-0.372-0.619c-0.062-0.103-0.124-0.206-0.176-0.31
	c-4.739-8.259-7.95-22.786-9.178-32.48c-0.134-1.084-0.248-2.116-0.341-3.066l18.222-5.844l54.141-17.365l3.521,16.488l67.531,43.63
	C266.037,295.119,266.512,296.822,265.82,298.247z"/>
<path style="fill:#80391B;" d="M252.068,322.117l-9.044,15.714c-0.723,1.456-2.498,2.055-3.954,1.311l-49.226-21.126
	c-1.997-0.857-4.19-1.142-6.342-0.842c-1.032,0.144-2.065,0.263-3.094,0.36c-31.262,2.953-33.688-2.777-48.338-22.61
	c-5.542-7.852-9.203-24.835-10.448-34.504c-0.134-1.084-0.248-2.116-0.341-3.066l18.222-5.844
	c2.819,8.951,7.433,22.104,10.107,25.873l6.535,9.199c13.607,13.339,31.788,20.628,50.506,20.628h0.134
	c9.818-0.021,19.534,2.055,28.32,6.442L252.068,322.117z"/>
<polygon style="fill:#FFAF82;" points="145.904,96.992 115.734,102.768 115.017,60.279 139.39,57.299 "/>
<polygon style="fill:#FF9B69;" points="123.151,59.275 123.831,99.32 115.729,102.766 115.019,60.274 "/>
<path style="fill:#87AFB9;" d="M197.969,239.285c-8.466,3.004-32.377,11.377-53.356,17.624c-10.355,3.087-19.988,5.647-26.709,6.804
	c-3.335,0.568-6.442-1.838-6.69-5.214l-9.075-141.309c-1.208-11.181,3.954-21.547,12.554-27.525c1.332,0.114,2.55,0.206,3.675,0.299
	c2.56,0.196,4.656,0.341,6.535,0.465c0.32,0.021,0.65,0.041,0.96,0.062c0.465,0.021,0.919,0.052,1.373,0.083
	c0.062,0.01,0.124,0.01,0.186,0.01c0.434,0.031,0.867,0.052,1.301,0.083c0.733,0.041,1.456,0.083,2.199,0.124
	c0.341,0.021,0.671,0.041,1.012,0.062c0.165,0.01,0.33,0.021,0.496,0.031c0.516,0.031,1.043,0.062,1.59,0.093
	c0.103,0.01,0.217,0.021,0.33,0.021c0.981,0.062,2.034,0.134,3.19,0.217c0.96,0.072,1.982,0.145,3.097,0.227
	s2.313,0.176,3.624,0.289c0.258,0.021,0.516,0.041,0.785,0.062c22.899,1.91,49.34,120.381,55.256,143.105
	C200.788,236.745,199.766,238.645,197.969,239.285z"/>
<path style="fill:#6C9BAA;" d="M144.613,256.909c-10.355,3.087-19.988,5.647-26.709,6.804c-3.335,0.568-6.442-1.838-6.69-5.214
	l-9.075-141.309c-1.208-11.181,3.954-21.547,12.554-27.525c1.332,0.114,2.55,0.206,3.675,0.299c2.56,0.206,4.656,0.351,6.535,0.465
	c0.32,0.021,0.65,0.041,0.96,0.062c0.475,0.031,0.929,0.062,1.373,0.083c0.062,0.01,0.124,0.01,0.186,0.01
	c0.444,0.031,0.867,0.052,1.301,0.083c0.733,0.041,1.456,0.083,2.199,0.124c0.341,0.021,0.671,0.041,1.012,0.062
	c0.165,0.01,0.33,0.021,0.496,0.031c0.516,0.031,1.043,0.062,1.59,0.093c0.103,0.01,0.217,0.021,0.33,0.021
	c0.991,0.072,2.044,0.134,3.19,0.217c0.96,0.072,1.982,0.145,3.097,0.227c1.115,0.093,2.313,0.186,3.624,0.289
	c-7,6.133-11.006,15.476-9.922,25.46L144.613,256.909z"/>
<path style="fill:#FFAF82;" d="M169.959,61.553c-1.352,0.537-3.727,0.423-3.727,0.423s-5.276,11.13-6.907,13.948
	c-2.116,3.655-5.007,5.203-8.352,5.245c-7.165,0.093-16.364-6.793-24.179-14.753h-0.01c-3.49-3.552-8.487-1.745-11.243-4.718
	c-6.236-6.711-9.684-15.837-9.674-24.696c0-0.413,0.01-0.816,0.031-1.229c0-0.134,0-0.268,0.01-0.413
	c0.021-0.413,0.052-0.836,0.093-1.249c-0.01-0.031,0-0.062,0.01-0.103c0.031-0.454,0.083-0.909,0.145-1.352
	c0.01-0.062,0.01-0.124,0.031-0.186c0.041-0.392,0.103-0.785,0.176-1.177c0.155-0.867,0.351-1.724,0.578-2.571
	c0.062-0.217,0.124-0.434,0.186-0.65c0.382-1.311,0.857-2.591,1.425-3.83c1.425-3.128,3.438-5.998,6.091-8.466
	c12.72-11.801,35.154-9.55,46.965,3.17c4.099,4.429,7.929,14.402,5.493,23.89c-0.547,2.158,3.066,9.065,5.049,12.978
	C173.253,58.001,172.231,60.644,169.959,61.553z"/>
<path style="fill:#FF9B69;" d="M150.973,81.169c-7.165,0.093-16.364-6.793-24.179-14.753h-0.01
	c-3.49-3.552-8.487-1.745-11.243-4.718c-6.236-6.711-9.684-15.837-9.674-24.696c0-0.413,0.01-0.816,0.031-1.229
	c0-0.134,0-0.268,0.01-0.413c0.021-0.413,0.052-0.836,0.093-1.249c-0.01-0.031,0-0.062,0.01-0.103
	c0.031-0.454,0.083-0.909,0.145-1.352c0.01-0.062,0.01-0.124,0.031-0.186c0.041-0.392,0.103-0.785,0.176-1.177
	c0.155-0.867,0.351-1.724,0.578-2.571c0.062-0.217,0.124-0.434,0.186-0.65c0.382-1.311,0.857-2.591,1.425-3.83
	c-1.177,11.512,2.891,23.932,11.088,32.78c3.221,3.479,9.054,1.352,13.143,5.513C138.739,68.583,144.933,75.883,150.973,81.169z"/>
<path style="fill:#AA6432;" d="M150.898,33.32c-0.141,2.885-0.665,5.648-1.517,8.231c-0.417,1.265-2.119,1.538-2.887,0.45
	c-1.395-1.974-3.273-3.019-5.073-2.57c-2.049,0.511-4.475,3.554-3.901,8.883c0.105,0.977-0.203,1.951-0.884,2.66
	c-3.417,3.561-9.697,9.966-13.734,10.999c-5.201,1.332-2.639,1.225-7.022,1.177c-11.49-2.989-15.693-18.537-15.02-32.282
	c0.761-15.529,12.58-27.564,26.4-26.887C141.071,4.659,151.658,17.79,150.898,33.32z"/>
<path style="fill:#965028;" d="M118.149,33.743c-2.931,9.996-1.911,20.205,2.136,28.966c-1.754,0.551-1.087,0.477-4.401,0.442
	c-11.495-2.994-15.696-18.535-15.022-32.281c0.756-15.53,12.58-27.566,26.401-26.892c4.517,0.227,8.69,1.774,12.236,4.32
	C129.508,13.243,121.533,22.202,118.149,33.743z"/>
<path style="fill:#46A5CD;" d="M167.713,30.854l-67.325,7.701c-1.854,0.263-1.678-1.358-1.837-3.224
	c-1.177-13.849,2.209-30.791,20.035-33.326c37.782-7.956,43.846,9.529,48.882,21.533c0.332,0.793,24.464-1.622,24.701-0.81
	c0.098,0.337,1.306,4.353-3.089,5.088C181.125,29.147,167.713,30.854,167.713,30.854z"/>
<path style="fill:#BA6746;" d="M276.559,464.6L276.559,464.6c-2.133,0.369-4.194-1.217-4.623-3.556l-56.029-305.457
	c-0.788-4.296,1.768-8.358,5.685-9.035l0,0c3.917-0.677,7.687,2.291,8.387,6.602l49.741,306.545
	C280.101,462.046,278.691,464.232,276.559,464.6z"/>
<path style="fill:#4BB9E1;" d="M428.934,369.393L428.934,369.393c-1.711,1.326-4.336,0.813-5.887-1.149L220.5,111.965
	c-2.848-3.604-2.609-8.536,0.535-10.971l0,0c3.143-2.434,7.979-1.434,10.756,2.225l197.503,260.185
	C430.805,365.397,430.645,368.067,428.934,369.393z"/>
<path style="fill:#6CD0F5;" d="M255.888,512.001c-77.886,0-147.193-35.371-193.105-90.73l20.091,5.844l58.074,46.707l96.096,2.947
	c10.638,0.326,21.118-2.633,30.016-8.475c48.806-32.049,25.38-18.097,70.794-38.062c64.465-56.574,75.768-59.312,86.69-80.833
	c18.177-35.816,19.273-39.28,26.001-47.274l25.572-30.385c6.707-7.968,10.856-17.772,11.907-28.134l6.191-61.002
	C547.142,341.387,429.276,512.001,255.888,512.001z"/>
<path style="fill:#82CD64;" d="M108.473,257.35l-12.097-11.142l6.049,5.571l-6.052-5.567c0.33-0.359,33.195-36.493,46.356-81.942
	c4.899-16.915,2.932-35.01-5.397-49.643c-2.196-3.858-6.785-10.316-12.896-10.316c-0.02,0-0.038,0.001-0.058,0.001
	c-3.772,0.025-14.086,2.877-28.36,28.756l-14.401-7.942c13.582-24.625,27.931-37.161,42.651-37.26
	c0.058-0.001,0.117-0.001,0.174-0.001c10.696,0,20.344,6.61,27.184,18.628c10.511,18.47,13.026,41.197,6.9,62.353
	C144.258,218.111,109.928,255.771,108.473,257.35z"/>
<path style="fill:#FA875A;" d="M136.571,211.109l-22.515-81.511c-1.965-6.749,2.43-13.964,9.816-16.113l0,0
	c7.386-2.15,14.966,1.579,16.931,8.329l20.421,73.343L136.571,211.109z"/>
<path style="fill:#46738C;" d="M157.668,149.071l-11.444-39.32c-3.284-11.283-15.094-17.768-26.378-14.484l-2.083,0.607
	c-11.283,3.284-17.768,15.094-14.484,26.378l11.444,39.32c0.473,1.625,2.173,2.558,3.798,2.086l37.061-10.787
	C157.207,152.396,158.141,150.696,157.668,149.071z"/>
<path style="fill:#FFAF82;" d="M244.339,171.757c2.285,5.593-0.295,11.989-5.822,14.429l-81.585,36.045
	c-8.659,3.304-18.357-1.038-21.66-9.697l0,0c-3.304-8.659,1.038-18.357,9.697-21.66l84.826-27.425
	c5.555-1.796,11.557,0.993,13.765,6.399L244.339,171.757z"/>
<path style="fill:#4191BE;" d="M114.973,19.181c-1.757,5.994-2.487,12.041-2.287,17.964l-12.301,1.406
	c-1.852,0.263-1.68-1.354-1.833-3.216c-1.179-13.848,2.207-30.791,20.037-33.33c1.903-0.4,3.724-0.737,5.471-1.01
	C120.081,6.316,116.954,12.424,114.973,19.181z"/>
<circle style="fill:#BA6746;" cx="159.324" cy="42.843" r="3.399"/>
<path style="fill:#64A54B;" d="M100.714,267.987l-33.564,9.364c-4.305,1.198-8.703-1.538-9.54-5.926l-16.426-51.518
	c-1.838-5.751-0.619-12.038,3.221-16.694l11.708-14.196c0.279-0.33,0.547-0.681,0.795-1.032
	C65.323,218.058,80.51,245.315,100.714,267.987z"/>
<g>
</g>
<g>
</g>
<g>
</g>
<g>
</g>
<g>
</g>
<g>
</g>
<g>
</g>
<g>
</g>
<g>
</g>
<g>
</g>
<g>
</g>
<g>
</g>
<g>
</g>
<g>
</g>
<g>
</g>
</svg>
